<?xml version="1.0" encoding="utf-8"?>
<!-- Generator: Adobe Illustrator 16.2.1, SVG Export Plug-In . SVG Version: 6.00 Build 0)  -->
<!DOCTYPE svg PUBLIC "-//W3C//DTD SVG 1.1//EN" "http://www.w3.org/Graphics/SVG/1.1/DTD/svg11.dtd">
<svg version="1.1" id="logo" xmlns="http://www.w3.org/2000/svg" xmlns:xlink="http://www.w3.org/1999/xlink" x="0px" y="0px"
	 width="768.584px" height="210.6px" viewBox="0 0 768.584 210.6" enable-background="new 0 0 768.584 210.6" xml:space="preserve">
<g id="letters">
	<path id="id:A_x3B_" fill="#FF3000" d="M716.788,206.06l-218.996,0.537c0,0,69.467-11.473,41.69-18.502
		c-18.258-4.638,52.968-67.271,30.951-67.271s57.703-68.442,31.488-68.442C575.754,52.381,618.763,0,618.763,0
		s-22.651,30.315,0.049,41.69c18.355,9.227,39.103,48.817,28.412,71.225c-21.041,44.082,74.202,64.879,49.501,64.879
		C672.022,177.892,716.788,206.06,716.788,206.06z"/>
	<path id="id:SS_x3B_" d="M422.317,102.907c-2.469,0-4.522,1.765-4.978,4.101H404.51l7.629-15.379c0.008,0,0.016,0.002,0.024,0.002
		c2.804,0,5.077-2.273,5.077-5.077s-2.273-5.077-5.077-5.077c-2.503,0-4.571,1.815-4.988,4.198h-13.914l29.362-53.733
		c0.268,0.044,0.537,0.083,0.817,0.083c2.804,0,5.077-2.273,5.077-5.077s-2.273-5.077-5.077-5.077c-2.804,0-5.077,2.273-5.077,5.077
		c0,1.724,0.864,3.242,2.177,4.16l-29.813,54.568h-16.34c-0.12-0.685-0.372-1.323-0.737-1.884l39.992-73.229
		c2.658-0.162,4.77-2.347,4.77-5.045c0-2.805-2.273-5.077-5.077-5.077c-2.804,0-5.077,2.272-5.077,5.077
		c0,2.07,1.243,3.844,3.021,4.634l-39.333,72.035c-0.751-0.439-1.614-0.708-2.546-0.708c-2.804,0-5.077,2.273-5.077,5.077
		s2.273,5.077,5.077,5.077c2.327,0,4.267-1.575,4.867-3.71H389.5l-8.35,15.283c-0.519-0.179-1.066-0.296-1.646-0.296
		c-2.804,0-5.077,2.273-5.077,5.077s2.273,5.077,5.077,5.077c2.363,0,4.331-1.622,4.897-3.808H400.9l-32.165,64.863
		c-0.501-0.166-1.027-0.277-1.583-0.277c-2.804,0-5.077,2.272-5.077,5.077c0,2.804,2.273,5.077,5.077,5.077
		c2.804,0,5.077-2.273,5.077-5.077c0-1.442-0.607-2.737-1.573-3.661l32.739-66.002h14.024c0.277,1.068,0.89,1.99,1.723,2.663
		l-41.293,83.364c-0.196-0.023-0.389-0.06-0.591-0.06c-2.804,0-5.077,2.273-5.077,5.077s2.273,5.077,5.077,5.077
		s5.077-2.273,5.077-5.077c0-1.796-0.938-3.366-2.346-4.269l41.2-83.104c0.364,0.083,0.739,0.136,1.127,0.136
		c2.804,0,5.077-2.273,5.077-5.077S425.121,102.907,422.317,102.907z M384.482,107.008c-0.201-1.029-0.711-1.944-1.432-2.649
		l8.982-16.438h15.263c0.391,1.389,1.347,2.529,2.616,3.162l-7.897,15.925H384.482z"/>
	<path id="id:O_x3B_" fill="#FFC000" d="M263.225,0.83c-56.677,0-82.16,43.887-82.16,100.564c0,56.677,25.434,104.665,82.16,104.665
		S365.84,179.697,365.84,103.493C365.84,26.947,319.902,0.83,263.225,0.83z M263.616,146.062c-24.165,0-43.692-19.576-43.692-43.692
		c0-24.115,19.576-43.691,43.692-43.691c24.165,0,60.631,19.576,60.631,43.691C324.247,126.486,287.731,146.062,263.616,146.062z"/>
	<path id="id:B_x3B_" fill="#80CFCB" d="M53.521,134.689c-11.422-18.355-49.785-29.749-56.57-31.644
		c5.476-8.847,31.757-48.367,56.57-34.896c34.026,18.502,57.605-18.844,57.605-18.844s-45.059,2.88-57.605-17.281
		C40.975,11.862-4.084,0.098-4.084,0.098v102.665v2v102.714c0,0,29.73-51.796,57.605-36.662
		c34.026,18.502,57.605-18.844,57.605-18.844S66.067,154.851,53.521,134.689z"/>
</g>
</svg>
