<?xml version="1.0" encoding="utf-8"?>
<!-- Generator: Adobe Illustrator 18.0.0, SVG Export Plug-In . SVG Version: 6.00 Build 0)  -->
<!DOCTYPE svg PUBLIC "-//W3C//DTD SVG 1.1//EN" "http://www.w3.org/Graphics/SVG/1.1/DTD/svg11.dtd">
<svg version="1.1" id="logo" xmlns="http://www.w3.org/2000/svg" xmlns:xlink="http://www.w3.org/1999/xlink" x="0px" y="0px"
	 viewBox="163.8 183 1578.4 429" enable-background="new 163.8 183 1578.4 429" xml:space="preserve">
<g id="letters">
	<g id="id:A_x3B_">
		<path fill="#FF3000" d="M1742.3,605l-448.6,1.1c0,0,142.3-23.5,85.4-37.9c-37.4-9.5,108.5-137.8,63.4-137.8
			c-45.1,0,118.2-140.2,64.5-140.2s34.5-107.3,34.5-107.3s-46.4,62.1,0.1,85.4c37.6,18.9,80.1,100,58.2,145.9
			c-43.1,90.3,152,132.9,101.4,132.9C1650.6,547.3,1742.3,605,1742.3,605z"/>
	</g>
	<g id="id:SS_x3B_">
		<g id="s2">
			<g>
				<circle cx="1085.8" cy="593.2" r="10.4"/>
			</g>
			<g>
				<circle cx="1178.1" cy="404.1" r="10.4"/>
			</g>
			<g>
				<circle cx="1090.4" cy="404.1" r="10.4"/>
			</g>
			<g>
				<circle cx="1180.3" cy="238.1" r="10.4"/>
			</g>
			<g>
				<polygon points="1088.1,591.1 1084,589 1174.3,406.7 1086.9,406.7 1180.6,235.2 1184.7,237.4 1094.7,402.1 1181.8,402.1 				"/>
			</g>
		</g>
		<g id="s1">
			<g>
				<circle cx="1065.1" cy="549.4" r="10.4"/>
			</g>
			<g>
				<circle cx="1069.7" cy="360.2" r="10.4"/>
			</g>
			<g>
				<circle cx="1157.3" cy="360.2" r="10.4"/>
			</g>
			<g>
				<circle cx="1159.6" cy="194.2" r="10.4"/>
			</g>
			<g>
				<polygon points="1069.6,547.3 1065.5,545.3 1155.9,363 1068.5,363 1162.2,191.4 1166.3,193.6 1076.2,358.4 1163.3,358.4 				"/>
			</g>
		</g>
	</g>
	<path id="id:O" fill="#FFC000" d="M703,184.6c-116.1,0-168.3,89.9-168.3,206S586.9,605,703,605s210.3-54,210.3-210.2
		C913.3,238.1,819.2,184.6,703,184.6z M703.8,482.1c-49.5,0-89.5-40.1-89.5-89.5s40.1-89.5,89.5-89.5c49.5,0,124.2,40.1,124.2,89.5
		S753.3,482.1,703.8,482.1z"/>
	<g id="id:B_x3B_transparency:0_x3B_">
		<g>
			<path fill="#80CFCB" d="M163.8,397.5V183.1c0,0,92.3,24.1,118,65.4s118,35.4,118,35.4s-48.3,76.5-118,38.6
				C224.8,291.5,163.8,397.5,163.8,397.5z"/>
		</g>
		<g id="id:B_x3B_transparency:0_x3B__1_">
			<g>
				<path fill="#80CFCB" d="M163.8,612V397.5c0,0,92.3,24.1,118,65.4s118,35.4,118,35.4s-48.3,76.5-118,38.6
					C224.8,505.9,163.8,612,163.8,612z"/>
			</g>
		</g>
	</g>
</g>
</svg>
