<?xml version="1.0" encoding="utf-8"?>
<!-- Generator: Adobe Illustrator 18.0.0, SVG Export Plug-In . SVG Version: 6.00 Build 0)  -->
<!DOCTYPE svg PUBLIC "-//W3C//DTD SVG 1.1//EN" "http://www.w3.org/Graphics/SVG/1.1/DTD/svg11.dtd">
<svg version="1.1" id="logo" xmlns="http://www.w3.org/2000/svg" xmlns:xlink="http://www.w3.org/1999/xlink" x="0px" y="0px"
	 viewBox="2 1.5 1900 900" enable-background="new 2 1.5 1900 900" xml:space="preserve">
<g id="letters">
	<g id="id:A_x3B_">
		<path fill="#FF3000" d="M1716,655l-439.9,1.1c0,0,139.6-23,83.8-37.2c-36.7-9.3,106.4-135.1,62.2-135.1
			c-44.2,0,115.9-137.5,63.3-137.5s33.8-105.2,33.8-105.2s-45.5,60.9,0.1,83.8c36.9,18.5,78.6,98.1,57.1,143.1
			c-42.3,88.6,149.1,130.3,99.4,130.3C1626.1,598.4,1716,655,1716,655z"/>
	</g>
	<g id="id:SS_x3B_">
		<g id="s2">
			<g>
				<circle cx="1072.2" cy="643.4" r="10.2"/>
			</g>
			<g>
				<circle cx="1162.7" cy="457.9" r="10.2"/>
			</g>
			<g>
				<circle cx="1076.7" cy="457.9" r="10.2"/>
			</g>
			<g>
				<circle cx="1164.9" cy="295.1" r="10.2"/>
			</g>
			<g>
				<polygon points="1074.4,641.3 1070.4,639.3 1159,460.5 1073.3,460.5 1165.2,292.3 1169.2,294.5 1080.9,456 1166.3,456 				"/>
			</g>
		</g>
		<g id="s1">
			<g>
				<circle cx="1051.9" cy="600.4" r="10.2"/>
			</g>
			<g>
				<circle cx="1056.4" cy="414.9" r="10.2"/>
			</g>
			<g>
				<circle cx="1142.3" cy="414.9" r="10.2"/>
			</g>
			<g>
				<circle cx="1144.6" cy="252.1" r="10.2"/>
			</g>
			<g>
				<polygon points="1056.3,598.4 1052.3,596.4 1140.9,417.6 1055.2,417.6 1147.1,249.3 1151.1,251.5 1062.8,413.1 1148.2,413.1 
									"/>
			</g>
		</g>
	</g>
	<path id="id:O" fill="#FFC000" d="M696.8,242.7c-113.9,0-165.1,88.2-165.1,202S582.9,655,696.8,655S903,602,903,448.9
		C903,295.1,810.7,242.7,696.8,242.7z M697.6,534.4c-48.5,0-87.8-39.3-87.8-87.8s39.3-87.8,87.8-87.8c48.5,0,121.8,39.3,121.8,87.8
		S746.1,534.4,697.6,534.4z"/>
	<g id="id:B_x3B_transparency:0_x3B_">
		<g>
			<path fill="#80CFCB" d="M168,451.5V241.2c0,0,90.5,23.6,115.7,64.1s115.7,34.7,115.7,34.7s-47.4,75-115.7,37.9
				C227.8,347.5,168,451.5,168,451.5z"/>
		</g>
		<g id="id:B_x3B_transparency:0_x3B__1_">
			<g>
				<path fill="#80CFCB" d="M168,661.8V451.5c0,0,90.5,23.6,115.7,64.1s115.7,34.7,115.7,34.7s-47.4,75-115.7,37.9
					C227.8,557.8,168,661.8,168,661.8z"/>
			</g>
		</g>
	</g>
</g>
</svg>
