<?xml version="1.0" encoding="utf-8"?>
<!-- Generator: Adobe Illustrator 18.0.0, SVG Export Plug-In . SVG Version: 6.00 Build 0)  -->
<!DOCTYPE svg PUBLIC "-//W3C//DTD SVG 1.1//EN" "http://www.w3.org/Graphics/SVG/1.1/DTD/svg11.dtd">
<svg version="1.1" id="logo" xmlns="http://www.w3.org/2000/svg" xmlns:xlink="http://www.w3.org/1999/xlink" x="0px" y="0px"
	 viewBox="0 0 612 166" enable-background="new 0 0 612 166" xml:space="preserve">
<g id="letters">
	<g id="id:A_x3B__1_">
		<g id="groupShape:true_x3B__3_">
			<circle fill="#73C9C3" cx="403" cy="61" r="25.1"/>
			<circle fill="#73C9C3" cx="374.1" cy="136.9" r="17.9"/>
			<circle fill="#73C9C3" cx="433.9" cy="136.9" r="17.9"/>
			<circle fill="#73C9C3" cx="403.5" cy="108.4" r="11.6"/>
		</g>
		<path fill="#EF3B24" d="M486.3,165.8l-173.9,0.4c0,0,55.2-9.1,33.1-14.7c-14.5-3.7,42.1-53.4,24.6-53.4s45.8-54.4,25-54.4
			c-20.9,0,13.3-41.6,13.3-41.6s-18,24.1,0,33.1C423,42.5,439.5,74,431,91.8c-16.7,35,58.9,51.5,39.3,51.5
			C450.8,143.4,486.3,165.8,486.3,165.8z"/>
		<polygon points="327.8,150.9 325.9,149.6 403.5,35.9 481.1,149.6 479.1,150.9 403.5,40.1 		"/>
		<path fill="#73C9C3" d="M466.4,135.3c-0.2,0-0.4,0-0.6,0.1l-58.5-98.3c0.5-0.6,0.8-1.3,0.8-2.2c0-1.9-1.5-3.4-3.4-3.5l0,0l0,0
			c-0.1,0-0.1,0-0.2,0c-2,0-3.5,1.6-3.5,3.5c0,0.9,0.3,1.7,0.9,2.3l-53.3,112.4c-0.3-0.1-0.5-0.1-0.8-0.1c-2,0-3.5,1.6-3.5,3.5
			c0,2,1.6,3.5,3.5,3.5c1.5,0,2.8-0.9,3.3-2.2l75.9,13c0.1,1.9,1.6,3.4,3.5,3.4c2,0,3.5-1.6,3.5-3.5c0-0.6-0.1-1.1-0.4-1.6l30.8-24
			c0.6,0.4,1.2,0.6,2,0.6c2,0,3.5-1.6,3.5-3.5C469.9,136.9,468.3,135.3,466.4,135.3z M427.2,166.1l-75.9-13c0-0.4-0.1-0.7-0.2-1
			l40.1-23.9c0.6,0.7,1.6,1.1,2.6,1.1c1.5,0,2.7-0.9,3.3-2.2l25.7,4.6l6.3,32.5C428.2,164.5,427.5,165.2,427.2,166.1z M404.6,38.5
			C404.6,38.5,404.6,38.5,404.6,38.5l17.9,91.6l-25.2-4.5c0-1.5-1-2.8-2.4-3.2L404.6,38.5z M430.5,163.8l-6.2-31.9l38.6,6.9
			c0,0,0,0,0,0c0,0.7,0.2,1.3,0.5,1.9l-30.7,23.9C432.1,164.2,431.4,163.8,430.5,163.8z M463.1,137.4l-39.2-7l-18-92.2
			c0.1,0,0.1-0.1,0.2-0.1l58.3,97.9C463.9,136.3,463.4,136.8,463.1,137.4z M403.1,38.2C403.1,38.2,403.1,38.2,403.1,38.2l-9.6,84
			c-1.8,0.2-3.2,1.7-3.2,3.5c0,0.4,0.1,0.8,0.2,1.1l-40.1,23.9c-0.1-0.2-0.3-0.3-0.5-0.4L403.1,38.2z"/>
		<path fill="#55AADE" d="M403.5,28.1l14.9,36.6l14.9,36.6h-29.8h-29.8l14.9-36.6L403.5,28.1z M365,124.1l-14.1,34.6h52.6h52.6
			L442,124.1H365z"/>
	</g>
	<g id="id:SS_x3B_">
		<g id="groupShape:true_x3B__1_">
			<path display="none" fill="#010101" d="M267.6,84c-2,0-3.6,1.4-4,3.3h-10.2l6-12.2l0,0c2.2,0,4-1.8,4-4s-1.8-4-4-4
				c-2,0-3.6,1.4-4,3.3h-11.1l23.3-42.7c0.2,0,0.4,0,0.6,0c2.2,0,4-1.8,4-4s-1.8-4-4-4s-4,1.8-4,4c0,1.4,0.7,2.6,1.7,3.3l-23.7,43.3
				h-13c-0.1-0.5-0.3-1.1-0.6-1.5l31.8-58.1c2.1-0.1,3.8-1.9,3.8-4c0-2.2-1.8-4-4-4s-4,1.8-4,4c0,1.6,1,3.1,2.4,3.7l-31.2,57.2
				c-0.6-0.3-1.3-0.5-2-0.5c-2.2,0-4,1.8-4,4s1.8,4,4,4c1.9,0,3.4-1.2,3.9-2.9h12l-6.5,12c-0.4-0.2-0.9-0.2-1.3-0.2
				c-2.2,0-4,1.8-4,4s1.8,4,4,4c1.9,0,3.5-1.3,3.9-3h13.1L225,140.5c-0.4-0.1-0.8-0.2-1.3-0.2c-2.2,0-4,1.8-4,4s1.8,4,4,4s4-1.8,4-4
				c0-1.1-0.5-2.2-1.2-2.9l26-52.4h11.1c0.2,0.9,0.7,1.6,1.4,2.1l-32.8,66.2c-0.2,0-0.3,0-0.5,0c-2.2,0-4,1.8-4,4s1.8,4,4,4
				s4-1.8,4-4c0-1.4-0.7-2.7-1.9-3.4l32.7-66c0.3,0.1,0.6,0.1,0.9,0.1c2.2,0,4-1.8,4-4S269.8,84,267.6,84z M237.5,87.2
				c-0.2-0.8-0.5-1.6-1.1-2.1l7.1-13.1h12.1c0.3,1.1,1.1,2,2.1,2.5l-6.3,12.7H237.5L237.5,87.2z"/>
		</g>
		<g id="groupShape:true_x3B__2_">
			<g>
				<path fill="#55AADE" d="M274.9,97.8c-2.8,0-5.5-1.7-6.9-4.3c-1.2-2.4-1-5.1,0.6-7.3c3-4.2,1-6.2-3.2-9.7c-1.2-1-2.4-2.1-3.5-3.2
					c-4.3-4.9-4.2-11.8-3.7-15.6c0.5-3.6,2.9-7,7.1-10.1c1.5-1.1,3.3-1.9,4.9-2.6l0.9-0.4c1.2-0.6,2.7-1.5,2.6-2.7
					c-0.1-2.3-4.9-5.4-8-6.4c-8.9-2.8-13.4-9.7-12.1-18.4C255.3,7.9,263.8-2,275-2c2,0,4.1,0.3,6.1,1c3.4,1.1,5.2,4,4.6,7.5
					c-0.5,3.2-3.2,6.6-7.3,6.6c-0.7,0-1.4-0.1-2.1-0.3c-3.5,0.1-5.7,0.9-6.4,2.3c-0.7,1.4-0.1,3.8,1.8,7c1,0.4,2,0.7,3,1.1
					c1.8,0.6,3.6,1.2,5.4,2.1c3.5,1.7,6.6,4.9,8.1,8.5c3.3,7.7,1.4,15.6-5.1,21.1c-0.9,0.8-2.3,1.4-3.8,2.1
					c-2.6,1.2-5.8,2.7-6.3,4.7c-0.2,0.8,0,1.7,0.7,2.8c1.1,1.8,3.1,3.4,4.9,4.9c1.1,0.9,2.3,1.9,3.3,2.9c5.6,5.6,5.1,13.7-1.3,22.7
					C279.1,96.7,277.1,97.8,274.9,97.8z M275,0.9c-9.7,0-17,8.6-18.2,16.6c-0.5,3.4-0.6,11.8,10.1,15.1c3.4,1.1,9.7,4.8,10,9
					c0.1,1.6-0.6,3.8-4.3,5.5l-1,0.4c-1.5,0.7-3.1,1.4-4.4,2.3c-3.6,2.6-5.6,5.3-5.9,8.1c-0.4,3.2-0.5,9.3,3,13.3c0.9,1,2,2,3.2,2.9
					c3.7,3.1,8.3,7.1,3.7,13.6c-1.3,1.8-0.9,3.3-0.4,4.3c0.8,1.6,2.6,2.7,4.3,2.7c1.2,0,2.3-0.6,3.2-1.8c3.9-5.5,7.4-13.2,1.6-19
					c-0.9-0.9-1.9-1.8-3.1-2.7c-2.1-1.7-4.2-3.5-5.6-5.6c-1.1-1.8-1.5-3.6-1-5.2c0.9-3.2,4.8-5,7.9-6.5c1.3-0.6,2.6-1.2,3.2-1.7
					c5.5-4.6,7.1-11.2,4.3-17.7c-1.3-3-3.8-5.6-6.7-7c-1.7-0.8-3.3-1.3-5.1-1.9c-1.2-0.4-2.4-0.8-3.6-1.3l-0.4-0.2l-0.3-0.4
					c-2.8-4.4-3.5-7.8-2.1-10.3c1.3-2.4,4.3-3.7,9.2-3.8l0.3,0l0.2,0.1c0.5,0.2,1,0.2,1.5,0.2c2.5,0,4.1-2.1,4.4-4.2
					c0.2-1,0.2-3.3-2.7-4.2C278.5,1.2,276.7,0.9,275,0.9z"/>
			</g>
			<g>
				<path fill="#F28DB9" d="M233.2,158.8c-2.8,0-5.5-1.7-6.9-4.3c-1.2-2.4-1-5.1,0.6-7.3c3-4.2,1-6.2-3.2-9.7
					c-1.2-1-2.4-2.1-3.5-3.2c-4.3-4.9-4.2-11.8-3.7-15.6c0.5-3.6,2.9-7,7.1-10.1c1.5-1.1,3.3-1.9,4.9-2.6l1-0.4
					c1.2-0.6,2.7-1.5,2.6-2.7c-0.1-2.3-4.9-5.4-8-6.4c-8.9-2.8-13.4-9.7-12.1-18.4c1.4-9.2,9.9-19.1,21.1-19.1c2,0,4.1,0.3,6.1,1
					c3.4,1.1,5.2,4,4.6,7.5c-0.5,3.2-3.2,6.6-7.3,6.6c-0.7,0-1.4-0.1-2.1-0.3c-3.5,0.1-5.7,0.9-6.4,2.3c-0.7,1.4-0.1,3.8,1.8,7
					c1,0.4,2,0.7,3,1.1c1.8,0.6,3.6,1.2,5.4,2.1c3.5,1.7,6.6,4.9,8.1,8.5c3.3,7.7,1.4,15.6-5.1,21.1c-0.9,0.8-2.3,1.4-3.8,2.1
					c-2.6,1.2-5.8,2.7-6.3,4.7c-0.2,0.8,0,1.7,0.7,2.8c1.1,1.8,3.1,3.4,5,4.9c1.1,0.9,2.3,1.9,3.3,2.9c5.6,5.6,5.1,13.7-1.3,22.7
					C237.4,157.8,235.4,158.8,233.2,158.8C233.2,158.8,233.2,158.8,233.2,158.8z M233.3,62c-9.7,0-17,8.6-18.2,16.6
					c-0.5,3.4-0.6,11.8,10.1,15.1c3.4,1.1,9.7,4.8,10,9c0.1,1.6-0.6,3.8-4.3,5.5l-1,0.4c-1.5,0.7-3.1,1.4-4.4,2.3
					c-3.6,2.6-5.6,5.3-5.9,8.1c-0.4,3.2-0.5,9.3,3,13.3c0.9,1,2,2,3.2,2.9c3.7,3.1,8.4,7.1,3.7,13.6c-1.3,1.8-0.9,3.3-0.4,4.3
					c0.8,1.6,2.6,2.7,4.3,2.7c1.2,0,2.3-0.6,3.2-1.8c3.9-5.5,7.4-13.2,1.7-19c-0.9-0.9-1.9-1.8-3.1-2.7c-2.1-1.7-4.2-3.5-5.6-5.6
					c-1.1-1.8-1.5-3.6-1-5.2c0.9-3.2,4.8-5,7.9-6.5c1.3-0.6,2.6-1.2,3.2-1.7c5.5-4.6,7.1-11.2,4.3-17.7c-1.3-3-3.8-5.6-6.7-7
					c-1.7-0.8-3.3-1.3-5.1-1.9c-1.2-0.4-2.4-0.8-3.6-1.3l-0.4-0.2l-0.3-0.4c-2.8-4.4-3.5-7.8-2.1-10.3c1.3-2.4,4.3-3.7,9.2-3.8
					l0.3,0l0.2,0.1c0.5,0.2,1,0.2,1.5,0.2c2.5,0,4.1-2.1,4.4-4.2c0.2-1,0.2-3.3-2.7-4.2C236.8,62.2,235,62,233.3,62z"/>
			</g>
		</g>
		<g id="groupShape:true_x3B_">
			<g>
				<path fill="#C0B3BA" d="M244,93.4C244,93.3,244,93.3,244,93.4l-12.9-12.9l-7.3-7.3c-7.4-7.4-8.1-18.8-1.6-25.3L246,24.1
					c0.5-0.5,1-1.1,1.5-1.7l-4.8-4.8c-0.4,0.6-0.9,1.2-1.4,1.8l-23.7,23.8c-9.2,9.2-8.5,24.8,1.6,34.9l20.2,20.2
					c5.8,5.8,6.6,14.3,1.8,19.1l-23.7,23.7c-1.5,1.5-2.6,3.2-3.6,4.9l5,5c0.8-1.9,1.8-3.7,3.3-5.2l23.6-23.8c3.4-3.4,5-7.9,5-12.6
					c0-1-0.1-2.1-0.3-3.1C249.9,101.7,247.7,97.1,244,93.4z"/>
			</g>
			<g>
				<path fill="#221F1F" d="M287,93.4C287,93.3,287,93.3,287,93.4l-12.9-12.9l-7.3-7.3c-7.4-7.4-8.1-18.8-1.6-25.3L289,24.1
					c0.5-0.5,1-1.1,1.5-1.7l-4.8-4.8c-0.4,0.6-0.9,1.2-1.4,1.8l-23.7,23.8c-9.2,9.2-8.5,24.8,1.6,34.9l20.2,20.2
					c5.8,5.8,6.6,14.3,1.8,19.1l-23.7,23.7c-1.5,1.5-2.6,3.2-3.6,4.9l5,5c0.8-1.9,1.8-3.7,3.3-5.2l23.6-23.8c3.4-3.4,5-7.9,5-12.6
					c0-1-0.1-2.1-0.3-3.1C292.9,101.7,290.8,97.1,287,93.4z"/>
			</g>
		</g>
	</g>
	<g id="id:O_x3B__1_" display="none">
		<path display="inline" d="M192.7,18.6c-33,0-59.8,26.8-59.8,59.8c0,33,26.8,59.8,59.8,59.8c33,0,59.8-26.8,59.8-59.8
			C252.5,45.4,225.7,18.6,192.7,18.6z M192.7,87c-4.7,0-8.6-3.8-8.6-8.6c0-4.7,3.8-8.6,8.6-8.6c4.7,0,8.6,3.8,8.6,8.6
			C201.3,83.1,197.4,87,192.7,87z"/>
		<path id="_x3C_path_x3E_" display="inline" fill="#FDC010" d="M184.6,1c-45,0-65.3,34.9-65.3,79.9s20.2,83.1,65.3,83.1
			s81.5-20.9,81.5-81.5C266.1,21.7,229.6,1,184.6,1z M184.9,116.3c-19.2,0-34.7-15.5-34.7-34.7s15.5-34.7,34.7-34.7
			S233,62.5,233,81.6S204.1,116.3,184.9,116.3z"/>
		<path display="inline" fill="#00ADCC" d="M256.1,97.6c-2.2-1.2-5-0.5-6.2,1.7c-0.1,0.1-0.1,0.2-0.2,0.4l-41-15.7l-8.5-5.2l5.5,0.6
			l43.6,12.8c0,0.1-0.1,0.3,0,0.4c0,1,0.8,1.7,1.8,1.7c1,0,1.7-0.8,1.7-1.8c0-1-0.8-1.7-1.8-1.7c-0.6,0-1.2,0.4-1.5,0.9l-40.8-12
			l16.7,1.9c0,0.3,0.2,0.7,0.5,0.8c0.5,0.3,1.1,0.1,1.4-0.4c0.3-0.5,0.1-1.1-0.4-1.4c-0.5-0.3-1.1-0.1-1.4,0.4c0,0,0,0,0,0.1
			l-19.8-2.3l-3-0.9l43.1,1.6c0.1,0.5,0.4,1.1,0.9,1.3c0.8,0.5,1.9,0.2,2.4-0.7c0.5-0.8,0.2-1.9-0.7-2.4c-0.8-0.5-1.9-0.2-2.4,0.7
			c-0.1,0.2-0.1,0.3-0.2,0.5l-39.5-1.5l21.3-1c0.1,0.2,0.1,0.4,0.3,0.5c0.4,0.4,1.1,0.3,1.5-0.1c0.2-0.2,0.3-0.5,0.3-0.7l17.5-0.1
			c0,0,0,0,0,0.1c0.2,0.9,1.2,1.5,2.1,1.3c0.9-0.2,1.5-1.2,1.3-2.1c-0.2-0.9-1.2-1.5-2.1-1.3c-0.7,0.2-1.3,0.8-1.3,1.5l-17.6,0.1
			c0-0.1-0.1-0.2-0.2-0.2c-0.4-0.4-1.1-0.4-1.5,0.1c0,0-0.1,0.1-0.1,0.1L201.1,76l46.2-10.8c0.6,1.9,2.3,3.3,4.4,3.2
			c2.5,0,4.5-2.1,4.5-4.6c0-2.5-2.1-4.5-4.6-4.5c-1.8,0-3.3,1.1-4,2.6c-0.1-0.4-0.2-0.8-0.6-1.1c-0.7-0.6-1.8-0.6-2.5,0.1
			c-0.3,0.3-0.5,0.8-0.4,1.2L205,73.6l24.2-10.5c0.2,0.3,0.5,0.5,0.9,0.5c0.6,0,1-0.5,1-1.1c0-0.6-0.5-1-1.1-1c-0.6,0-1,0.5-1,1.1
			c0,0,0,0,0,0.1l-27.5,11.9l44.3-23.4c0.3,0.4,0.8,0.7,1.4,0.7c1,0,1.7-0.8,1.7-1.8c0-1-0.8-1.7-1.8-1.7c-1,0-1.7,0.8-1.7,1.8
			c0,0.2,0,0.4,0.1,0.5l-45.4,24c-0.2-0.4-0.5-0.7-0.9-1l3.4-3l34.9-21.1c0.1,0.1,0.2,0.2,0.3,0.3c0.7,0.6,1.8,0.6,2.5-0.1
			c0.6-0.7,0.6-1.8-0.1-2.5c-0.7-0.6-1.8-0.6-2.5,0.1c-0.4,0.5-0.5,1.1-0.4,1.7l-32.5,19.7l11-9.7c0.4,0.3,0.9,0.4,1.4,0.3
			c0.9-0.2,1.5-1.1,1.3-2.1c-0.2-0.9-1.1-1.5-2.1-1.3c-0.9,0.2-1.5,1.1-1.3,2.1c0.1,0.3,0.2,0.5,0.3,0.7l-13.1,11.6l-2.4,1.5
			l7.2-12.4l17.2-19c0,0,0,0,0,0c0.8,0.5,1.9,0.2,2.4-0.7c0.5-0.8,0.2-1.9-0.7-2.4c-0.8-0.5-1.9-0.2-2.4,0.7c-0.4,0.7-0.3,1.5,0.2,2
			l-15.5,17.2l17.5-30c0.5,0.2,1.2,0.2,1.8,0.1c1.7-0.4,2.8-2.1,2.4-3.8c-0.4-1.7-2.1-2.8-3.8-2.4c-1.7,0.4-2.8,2.1-2.4,3.8
			c0.2,0.9,0.8,1.6,1.5,2L206.7,59l-7.8,8.6l1.4-6.4l15.9-28.5c1.8,0.8,4,0.5,5.3-1.1c1.7-1.9,1.5-4.8-0.4-6.4
			c-1.9-1.7-4.8-1.5-6.4,0.4c-1.7,1.9-1.5,4.8,0.4,6.4c0.2,0.2,0.4,0.3,0.6,0.5l-15.1,27l6.8-31.6c0,0,0,0,0.1,0
			c1,0,1.7-0.8,1.7-1.8c0-1-0.8-1.7-1.8-1.7c-1,0-1.7,0.8-1.7,1.8c0,0.8,0.5,1.4,1.2,1.6l-3.3,15.5c-0.1-0.2-0.1-0.3-0.3-0.4
			c-0.4-0.4-1.1-0.4-1.5,0.1c-0.4,0.4-0.4,1.1,0.1,1.5c0,0,0,0,0.1,0l-5.7,16.6l-0.2-3l8.7-33.8c0.5,0.1,1.1-0.1,1.5-0.6
			c0.6-0.7,0.6-1.8-0.1-2.5c-0.7-0.6-1.8-0.6-2.5,0.1c-0.6,0.7-0.6,1.8,0.1,2.5c0.1,0.1,0.3,0.2,0.5,0.3l-8.4,32.3l-3.1-41.1
			c0.9-0.3,1.4-1.2,1.2-2.1c-0.2-0.9-1.2-1.5-2.1-1.3c-0.9,0.2-1.5,1.2-1.3,2.1c0.2,0.8,0.9,1.4,1.7,1.4l3.2,42.6l-2.8,10.8
			l-2.5-4.7l0.2-12.4c0.4-0.1,0.9-0.4,1.1-0.8c0.5-0.8,0.2-1.9-0.6-2.4c-0.8-0.5-1.9-0.2-2.4,0.6c-0.5,0.8-0.2,1.9,0.6,2.4
			c0.2,0.1,0.5,0.2,0.8,0.2l-0.2,11.5l-5.4-10c-0.1-0.5-0.3-0.9-0.6-1.1l-2.2-4l-7.9-25.2c0.5-0.3,1-0.7,1.3-1.2
			c0.9-1.5,0.3-3.4-1.2-4.3c-1.5-0.9-3.4-0.3-4.3,1.2c-0.9,1.5-0.3,3.4,1.2,4.3c0.8,0.5,1.7,0.5,2.5,0.2l7.1,22.6l-12.9-24
			c0.6-0.4,0.9-1.1,0.7-1.8c-0.2-0.9-1.2-1.5-2.1-1.3c-0.9,0.2-1.5,1.2-1.3,2.1c0.2,0.9,1.2,1.5,2.1,1.3c0.1,0,0.1,0,0.2-0.1
			l14.2,26.4l1.1,3.5c-0.8,0.2-1.3,0.9-1.3,1.7c0,1,0.8,1.8,1.8,1.8c0.2,0,0.4,0,0.6-0.1l2.9,9.3L162,36.7c0.5-0.7,0.4-1.7-0.3-2.3
			c-0.5-0.5-1.3-0.6-1.9-0.3l-2.3-2.7c0.4-0.5,0.7-1.2,0.7-2c0-1.7-1.4-3.1-3.2-3.1c-1.7,0-3.1,1.4-3.1,3.2c0,1.7,1.4,3.1,3.2,3.1
			c0.8,0,1.5-0.3,2.1-0.8l2.2,2.6c0,0-0.1,0.1-0.1,0.1c-0.6,0.7-0.6,1.8,0.1,2.5c0.6,0.5,1.4,0.6,2,0.2l24.4,34.2l-4.6-2l-38.5-30.2
			c0.4-0.8,0.1-1.8-0.7-2.3c-0.8-0.5-1.9-0.2-2.4,0.7c-0.5,0.8-0.2,1.9,0.7,2.4c0.7,0.4,1.6,0.2,2.2-0.3l36.9,29l-38.8-17
			c0-0.1,0-0.2,0-0.4c0-1-0.8-1.7-1.8-1.7s-1.7,0.8-1.7,1.8c0,1,0.8,1.7,1.8,1.7c0.7,0,1.2-0.4,1.5-0.9L180.9,70l6.8,5.4
			c-0.1,0.1-0.2,0.2-0.3,0.4c-0.2,0.3-0.3,0.7-0.4,1l-22.2-5.6c-0.4-0.3-0.8-0.4-1.2-0.3l-33.5-8.5c0.1-0.7-0.2-1.4-0.9-1.7
			c-0.8-0.5-1.9-0.2-2.4,0.7c-0.5,0.8-0.2,1.9,0.7,2.4c0.8,0.5,1.9,0.2,2.4-0.7c0,0,0-0.1,0.1-0.1l32.8,8.3
			c-0.1,0.1-0.2,0.1-0.2,0.2c-0.7,0.7-0.6,1.8,0.1,2.5c0.7,0.7,1.8,0.6,2.5-0.1c0.2-0.2,0.3-0.4,0.4-0.7l9.5,2.2
			c-0.4,0.7-0.2,1.6,0.4,2.1l-32-0.7c-1.1-0.9-2.5-1.4-4-1c-0.7,0.2-1.3,0.5-1.8,0.9l-6.8-0.2c-0.1-0.7-0.4-1.4-1-1.9
			c-1.3-1.2-3.3-1.1-4.4,0.2c-1.2,1.3-1.1,3.3,0.2,4.4c1.3,1.2,3.3,1.1,4.4-0.2c0.5-0.6,0.8-1.3,0.8-2.1L137,77
			c-1,1.1-1.4,2.6-1.1,4.1c0.6,2.4,3,4,5.5,3.4c1.9-0.4,3.3-2.1,3.5-3.9l34.3-2.6l7.9,0.2c0,0.3,0.1,0.5,0.2,0.7l-5.3,2.4L137,94
			c-0.3-0.6-0.9-1.1-1.6-1.1c-1,0-1.7,0.8-1.7,1.8c0,1,0.8,1.7,1.8,1.7c1,0,1.7-0.8,1.7-1.8c0-0.1,0-0.1,0-0.2l41.5-11.8l-44.3,19.7
			c-0.1-0.1-0.2-0.2-0.3-0.3c-0.7-0.6-1.8-0.6-2.5,0.1c-0.6,0.7-0.6,1.8,0.1,2.5c0.7,0.6,1.8,0.6,2.5-0.1c0.4-0.5,0.5-1.1,0.3-1.7
			l47.7-21.2l0.5-0.1c-0.2,0.3-0.4,0.7-0.4,1.1c0,1,0.8,1.8,1.8,1.8c0.3,0,0.6-0.1,0.9-0.2l-26.7,34.1c-0.2-0.2-0.5-0.4-0.8-0.6
			c-2.2-1.2-5-0.5-6.2,1.7c-1.2,2.2-0.5,5,1.7,6.2c1.4,0.8,3,0.8,4.4,0.1l-4.3,5.4c-0.2-0.1-0.4-0.1-0.6-0.1
			c-0.6,0.1-0.9,0.7-0.8,1.3c0.1,0.6,0.7,0.9,1.3,0.8c0.6-0.1,0.9-0.7,0.8-1.3c0-0.2-0.1-0.3-0.2-0.4l29.4-37l-19.6,39.3
			c-0.6-0.2-1.4-0.1-1.9,0.5c-0.6,0.7-0.6,1.8,0.1,2.5c0.7,0.6,1.8,0.6,2.5-0.1c0.6-0.7,0.6-1.8-0.1-2.5c0,0-0.1-0.1-0.1-0.1
			l20.7-41.5l0.5-0.6c0.1,0.3,0.2,0.5,0.5,0.7c0.7,0.7,1.8,0.6,2.5-0.1c0.7-0.7,0.6-1.8-0.1-2.5c-0.1-0.1-0.2-0.1-0.3-0.2l0.8-2.1
			l3-3.7l0.8,4.8l-21.9,57c-0.3-0.1-0.6-0.1-1-0.1c-0.9,0.2-1.5,1.2-1.3,2.1c0.2,0.9,1.2,1.5,2.1,1.3c0.9-0.2,1.5-1.2,1.3-2.1
			c-0.1-0.4-0.3-0.8-0.7-1L192,89.7l1.4,8.8l-4.2,29.9c-0.3-0.1-0.7-0.1-1-0.1c-2.5,0-4.5,2.1-4.5,4.6c0,2.5,2.1,4.5,4.6,4.5
			c2.5,0,4.5-2.1,4.5-4.6c0-2-1.3-3.6-3.1-4.2l4-28.3l2.8,17.3L196,153c-0.1,0-0.2,0-0.3,0c-0.9,0.2-1.5,1.2-1.3,2.1
			c0.2,0.9,1.2,1.5,2.1,1.3c0.9-0.2,1.5-1.2,1.3-2.1c-0.2-0.7-0.7-1.1-1.3-1.3l0.4-32.4l4.2,26.2c-0.2,0.1-0.4,0.2-0.5,0.4
			c-0.3,0.5-0.1,1.1,0.4,1.4c0.5,0.3,1.1,0.1,1.4-0.4c0.3-0.5,0.1-1.1-0.4-1.4c-0.1-0.1-0.3-0.1-0.4-0.1l-4.7-29.2l0.3-25.7
			l21.9,43.9c-1.5,1-2.2,2.9-1.8,4.7c0.6,2.5,3,4,5.5,3.4c0.1,0,0.2-0.1,0.4-0.1l0.2,0.4c-0.3,0.2-0.5,0.4-0.7,0.7
			c-0.5,0.8-0.2,1.9,0.7,2.4c0.8,0.5,1.9,0.2,2.4-0.7c0.5-0.8,0.2-1.9-0.7-2.4c-0.4-0.2-0.8-0.3-1.2-0.2l-0.2-0.4
			c1.9-0.9,3.1-3,2.6-5.2c-0.6-2.5-3-4-5.5-3.4c-0.1,0-0.2,0.1-0.4,0.1l-15.6-39.7l18.8,22.8c-0.3,0.2-0.5,0.4-0.8,0.7
			c-1.7,1.9-1.5,4.7,0.4,6.4c1.9,1.7,4.8,1.5,6.4-0.4c1.7-1.9,1.5-4.8-0.4-6.4c-1.5-1.3-3.6-1.5-5.2-0.6l-19.9-24.1l-2.3-5.8
			l9.7,9.1l5.7,7.9c-0.2,0.2-0.4,0.6-0.3,0.9c0.1,0.6,0.7,0.9,1.3,0.8c0.6-0.1,0.9-0.7,0.8-1.3c-0.1-0.6-0.7-0.9-1.3-0.8
			c0,0,0,0-0.1,0l-4.1-5.7l11.2,10.5l7.7,9.1c-0.4,0.4-0.5,1-0.4,1.6c0.2,0.9,1.2,1.5,2.1,1.3c0.9-0.2,1.4-1,1.3-1.9l10.8,10.1
			c-0.1,0.1-0.1,0.2-0.2,0.3c-0.5,0.8-0.2,1.9,0.7,2.4c0.8,0.5,1.9,0.2,2.4-0.7c0.5-0.8,0.2-1.9-0.7-2.4c-0.6-0.3-1.3-0.3-1.8,0.1
			l-21.5-20.2l-17.8-21l15,15c-0.1,0.2-0.2,0.3-0.2,0.5c0,0.6,0.5,1,1.1,1c0.6,0,1-0.5,1-1.1c0-0.6-0.5-1-1.1-1
			c-0.2,0-0.3,0.1-0.5,0.1l-19.5-19.5l-1.2-1.4l6.3,2.4l35.5,21.6c-0.1,0.3-0.2,0.5-0.2,0.9c0,1,0.8,1.7,1.8,1.7
			c1,0,1.7-0.8,1.7-1.8c0-1-0.8-1.7-1.8-1.7c-0.5,0-0.9,0.2-1.2,0.5l-33.1-20.1l38.3,14.7c-0.7,2,0.2,4.3,2.1,5.4
			c2.2,1.2,5,0.5,6.2-1.7C259.1,101.7,258.3,98.9,256.1,97.6z M219.7,135.5l-22.4-44.8l0.1-4.3l6.4,7.8l16.2,41.1
			C219.9,135.3,219.8,135.4,219.7,135.5z M185.6,89.7l4-8l-2,5.7l-1.8,2.2C185.8,89.6,185.7,89.6,185.6,89.7z M194.1,74.3
			c-0.2,0.2-0.3,0.4-0.4,0.7l-0.5-0.2l0.7-0.7L194.1,74.3z M193.1,74.1l0.3-0.6l0.1,0.1L193.1,74.1z M193,73.1l-0.7,1.2
			c0,0,0,0-0.1,0l0.5-1.4L193,73.1z M193,72.3L193,72.3L193,72.3L193,72.3z M192.4,72.4l-0.2,0.5L192.4,72.4L192.4,72.4z M194.1,80
			l0.4-0.5c0.2,0.2,0.4,0.4,0.7,0.5l-0.3,0.7L194.1,80z M192.6,71.8L192.6,71.8l0-0.3l0.1,0.1L192.6,71.8z M193.8,80.4l0.9,0.8
			l-0.3,0.7l-0.9-1.1L193.8,80.4z M195.3,81.1l0.3-0.9c0.1,0,0.2,0.1,0.4,0.1l-0.2,1.2L195.3,81.1z M194.5,73.3L194.5,73.3
			L194.5,73.3L194.5,73.3z M194.2,72.8l-0.2-0.3l0.1-0.1L194.2,72.8L194.2,72.8z M192.1,71.2l-2-2.3l0-1l2,2.9L192.1,71.2z
			 M192,71.9l-0.5,2.1c-0.1,0-0.1,0-0.2,0l-1.2-0.5l0.1-3.6L192,71.9z M194.8,82.4l0.3-0.8l0.6,0.6l-0.2,1.1L194.8,82.4z
			 M196.7,72.9c-0.1,0-0.3,0-0.4,0.1c-0.4,0.1-0.7,0.2-1,0.4l-0.3-0.5l1.6-1.8L196.7,72.9z M193.8,71.8l-0.1,0.2l-0.4-0.5l0.1-0.4
			L193.8,71.8z M192.5,81.1c0.1,0,0.1-0.1,0.2-0.1L192.5,81.1L192.5,81.1z M193.1,81.2l1.1,1.3l-0.4,1.1l-1-2L193.1,81.2z M194.6,83
			l0.9,1.1l-0.3,2.3l-1-2.1L194.6,83z M196,83.9l0.2-1.2l0.7,0.7l0,1.6L196,83.9z M196.3,82.1l0.2-1.6c0.1,0,0.3,0,0.4,0l0,2.1
			L196.3,82.1z M198.8,80c0.1-0.1,0.2-0.1,0.3-0.2l0.2,0.2l0.3,0.5l-0.7-0.3L198.8,80z M198.4,73.2L198.4,73.2L198.4,73.2
			C198.4,73.2,198.4,73.2,198.4,73.2z M197.2,72.9l-0.2-2.4l1-1.1L197.2,72.9C197.2,72.9,197.2,72.9,197.2,72.9z M196.5,70.4l-1.8,2
			l-0.3-0.5l2-3.5L196.5,70.4z M194.1,71.3l-0.4-0.8l2.4-6.9l0.3,3.8L194.1,71.3z M192.9,71l-0.1-0.2l0.1-0.5l0.1,0.2L192.9,71z
			 M189,66.9c0.1,0,0.2-0.1,0.3-0.1l0.4,0.5l0,1.1l-1.3-1.5C188.5,66.9,188.7,66.9,189,66.9z M189.6,69.2l-0.1,4l-0.2-0.1l-2-6.5
			L189.6,69.2z M189.2,74.2c-0.2,0.1-0.4,0.2-0.6,0.3l-1.3-1.8l1.7,0.7L189.2,74.2z M188.4,80.5c0,0,0.1,0.1,0.1,0.1l-0.3,0.1
			L188.4,80.5z M192,81.2l0.2,0.4l-0.8,1l-0.2-1.2C191.5,81.4,191.7,81.3,192,81.2z M195.9,84.6l1,1.2l-0.1,3.9l-1.3-2.5L195.9,84.6
			z M197.4,80.5c0.2,0,0.3-0.1,0.5-0.1l0.6,0.2l2.2,5.6l-3.2-3L197.4,80.5z M200.5,78l0.2,0l2.1,0.6l-2.5-0.3
			C200.4,78.2,200.4,78.1,200.5,78z M200.6,77.4c0,0,0-0.1,0-0.1c0.1-0.2,0.1-0.5,0.1-0.8l21.9-0.1L200.6,77.4L200.6,77.4z
			 M199.4,72.6l0.8-0.5l-1.1,1L199.4,72.6z M197.8,73C197.8,73,197.8,73,197.8,73l0.9-4.3l6.7-7.4l-6.4,11L197.8,73z M196.9,69.8
			l-0.2-2.3l2.7-4.8l-1.2,5.7L196.9,69.8z M193.3,69.8l-0.2-0.3l2.6-9.9l0.2,2.6L193.3,69.8z M192.4,70.1l-2.2-4l0-0.3
			c0.1-0.1,0.1-0.3,0.1-0.4l2.2,4.2L192.4,70.1z M188.7,63.4l-4.9-8.7c0.2-0.2,0.3-0.4,0.4-0.6l5.1,9.5
			C189.1,63.5,188.9,63.4,188.7,63.4z M182.7,51.7l-0.3-1l0.5,1C182.9,51.7,182.8,51.7,182.7,51.7z M188.1,63.5
			c-0.7,0.2-1.2,0.8-1.3,1.5l-2.7-8.6L188.1,63.5z M188.8,72.8l-2-0.9L163,38.6l23.5,27L188.8,72.8z M188.2,74.9
			C188.2,74.9,188.1,74.9,188.2,74.9l-5.3-4.1l3.5,1.5L188.2,74.9z M185.8,76.9l-0.5,0l-1.5-0.2l-5.6-1.3c-0.1-0.2-0.2-0.4-0.3-0.5
			L185.8,76.9z M184.7,77.5l0.1,0l-0.3,0L184.7,77.5z M187.7,79.6l-2.2,0.6l2-0.9C187.6,79.4,187.6,79.5,187.7,79.6z M190.3,81.4
			c0.1,0,0.3,0,0.4,0l0.3,1.7l-2.3,2.9L190.3,81.4z M192.4,82.1l1.1,2.2l-1.3,3.4l-0.7-4.4L192.4,82.1z M193.8,84.9l1.2,2.3
			l-1.4,9.6l-1.3-8.1L193.8,84.9z M195.4,88.1l1.4,2.8l-0.3,23.7l-2.6-16L195.4,88.1z M197.4,85.6l0-1.7l3.7,3.5l2.1,5.3L197.4,85.6
			z M199.1,80.9l1,0.4l9.9,13.8l-8.5-8L199.1,80.9z M201.5,82.3l1.5,1.5l18.9,22.4l-9.9-9.3L201.5,82.3z M199.8,79.2
			C199.8,79.2,199.8,79.2,199.8,79.2L206,83l-4.5-1.7L199.8,79.2z M247.2,63.3C247.2,63.3,247.2,63.3,247.2,63.3c0,0.2,0,0.4,0,0.6
			c0,0.3,0,0.5,0.1,0.8l-46.7,10.9c0,0,0-0.1,0-0.1l0.7-0.3l43-12.6c0.1,0.3,0.3,0.5,0.5,0.7C245.4,64.1,246.5,64,247.2,63.3z
			 M203.4,44.4L199.8,61l-3.1,5.6l-0.3-4.2l6.1-17.7C202.8,44.7,203.1,44.6,203.4,44.4z M175.9,74.4c-0.2,0.1-0.4,0.2-0.5,0.4
			l-9.7-2.3c0-0.2-0.1-0.5-0.2-0.7L175.9,74.4z M179,76.2l-0.7-0.1c0,0,0-0.1,0-0.1L179,76.2z M178.1,76.9c0.1-0.1,0.1-0.2,0.1-0.3
			l4.4,0.6l-3.5,0.3l-1.5,0C177.8,77.3,178,77.1,178.1,76.9z M173.9,77.8L145,80c0-0.3,0-0.7-0.1-1c-0.2-0.7-0.5-1.3-0.9-1.9
			L173.9,77.8z M188,80.1C188,80.1,188.1,80.1,188,80.1l-0.8,1.1l-1.7,0.7c-0.2-0.4-0.5-0.7-0.9-0.8L188,80.1z M185.7,82.3l0.9-0.4
			l-0.9,1.2c0-0.1,0.1-0.3,0.1-0.5C185.8,82.5,185.7,82.4,185.7,82.3z M158.5,118.6l29.1-37.1l1.4-0.6c0.1,0.1,0.2,0.1,0.3,0.1
			l-5.5,11l-24.4,30.7C159.8,121.3,159.5,119.8,158.5,118.6z M187.1,88.8l-0.2,0.7c-0.1,0-0.2,0-0.3,0L187.1,88.8z M233.5,118.2
			c-0.2,0-0.4,0.1-0.5,0.2l-4.8-5.7l5.8,5.4C233.8,118.2,233.7,118.2,233.5,118.2z"/>
		<path display="inline" fill="#F9B2A6" d="M262.2,67.6c-0.2-13.8-10.6-33.6-18-40.9c-7.4-7.4-19.9-20.2-43.6-23.9
			c-23.7-3.8-45.8,4.5-62.3,19.5c-16.4,15-23.1,37.2-23.3,56.3s9.8,45,37.3,64.4c20.9,14.7,35.6,19.2,48.9,20.1
			c13.3,0.9,21-5.4,27.3-10.4s11.9-16.9,15.9-24.7c4-7.7,11.4-21.7,14.6-30.2C262.2,89.3,262.4,81.3,262.2,67.6z M195.7,143.5
			c0,0-22.2-8.9-37-37.8s1-47.2,13.1-53.8s27.2,0.9,30.6,8.5c3.5,7.6,2.9,21.9,4.8,28c2,6.1,7.9,21,10,30.7
			C219.4,128.9,217.7,151.1,195.7,143.5z"/>
		<path display="inline" fill-rule="evenodd" clip-rule="evenodd" fill="#73C9C3" d="M258.9,60.2c-1.7-14.7-19.7-36.5-28.6-41.4
			c-8.9-4.9-39.3-22.4-72.9-2.5c-33.6,19.9-34.7,52.5-34.9,58.3c-0.2,5.7-1.5,38.6,31.3,62.7s50.1,21.5,50.1,21.5
			c17.2-0.4,25.2-10.2,28.7-14.2c3.5-4,9.2-15.2,19.9-35.7C263.2,88.3,260.6,75,258.9,60.2z M233.4,45.8c-1.8,7-7.9,20.7-8.8,35.1
			c-0.8,14.4,8.9,33,4.9,48s-20.2,18.6-30.4,17.3c0,0-27.6,2.8-63.6-40.7c-36-43.5,22.5-78.3,26.4-80.3s34.6-16.4,56.2-8.5
			S235.2,38.8,233.4,45.8z"/>
	</g>
	<path id="id:B_x3B_" fill="#81CECB" d="M44.1,109.6C34.9,94.8,3.6,85.7-1.1,84.4c3.9-6.5,25.2-40.1,45.2-29.2
		c27,14.7,45.8-15,45.8-15s-35.8,2.3-45.8-13.7C34.2,10.5-1.6,1.1-1.6,1.1l-0.1,83.1l0,0v83.1c0,0,23.7-41.1,45.8-29.1
		c27,14.7,45.8-15,45.8-15S54.1,125.6,44.1,109.6z"/>
</g>
</svg>
