<?xml version="1.0" encoding="utf-8"?>
<!-- Generator: Adobe Illustrator 18.0.0, SVG Export Plug-In . SVG Version: 6.00 Build 0)  -->
<!DOCTYPE svg PUBLIC "-//W3C//DTD SVG 1.1//EN" "http://www.w3.org/Graphics/SVG/1.1/DTD/svg11.dtd">
<svg version="1.1" id="logo" xmlns="http://www.w3.org/2000/svg" xmlns:xlink="http://www.w3.org/1999/xlink" x="0px" y="0px"
	 viewBox="0 0 612 166" enable-background="new 0 0 612 166" xml:space="preserve">
<g id="letters">
	<g id="id:A_x3B__1_">
		<path fill="#EF3B24" d="M486.3,165.8l-173.9,0.4c0,0,55.2-9.1,33.1-14.7c-14.5-3.7,42.1-53.4,24.6-53.4s45.8-54.4,25-54.4
			c-20.9,0,13.3-41.6,13.3-41.6s-18,24.1,0,33.1C423,42.5,439.5,74,431,91.8c-16.7,35,58.9,51.5,39.3,51.5
			C450.8,143.4,486.3,165.8,486.3,165.8z"/>
	</g>
	<g id="id:SS_x3B_">
		<path fill="#010101" d="M267.6,84c-2,0-3.6,1.4-4,3.3h-10.2l6-12.2l0,0c2.2,0,4-1.8,4-4s-1.8-4-4-4c-2,0-3.6,1.4-4,3.3h-11.1
			l23.3-42.7c0.2,0,0.4,0,0.6,0c2.2,0,4-1.8,4-4s-1.8-4-4-4s-4,1.8-4,4c0,1.4,0.7,2.6,1.7,3.3l-23.7,43.3h-13
			c-0.1-0.5-0.3-1.1-0.6-1.5l31.8-58.1c2.1-0.1,3.8-1.9,3.8-4c0-2.2-1.8-4-4-4s-4,1.8-4,4c0,1.6,1,3.1,2.4,3.7l-31.2,57.2
			c-0.6-0.3-1.3-0.5-2-0.5c-2.2,0-4,1.8-4,4s1.8,4,4,4c1.9,0,3.4-1.2,3.9-2.9h12l-6.5,12c-0.4-0.2-0.9-0.2-1.3-0.2c-2.2,0-4,1.8-4,4
			s1.8,4,4,4c1.9,0,3.5-1.3,3.9-3h13.1L225,140.5c-0.4-0.1-0.8-0.2-1.3-0.2c-2.2,0-4,1.8-4,4s1.8,4,4,4s4-1.8,4-4
			c0-1.1-0.5-2.2-1.2-2.9l26-52.4h11.1c0.2,0.9,0.7,1.6,1.4,2.1l-32.8,66.2c-0.2,0-0.3,0-0.5,0c-2.2,0-4,1.8-4,4s1.8,4,4,4
			s4-1.8,4-4c0-1.4-0.7-2.7-1.9-3.4l32.7-66c0.3,0.1,0.6,0.1,0.9,0.1c2.2,0,4-1.8,4-4S269.8,84,267.6,84z M237.5,87.2
			c-0.2-0.8-0.5-1.6-1.1-2.1l7.1-13.1h12.1c0.3,1.1,1.1,2,2.1,2.5l-6.3,12.7H237.5L237.5,87.2z"/>
	</g>
	<g id="id:O_x3B__1_">
		<path id="_x3C_path_x3E_" fill="#FDC010" d="M184.6,1c-45,0-65.3,34.9-65.3,79.9s20.2,83.1,65.3,83.1s81.5-20.9,81.5-81.5
			C266.1,21.7,229.6,1,184.6,1z M184.9,116.3c-19.2,0-34.7-15.5-34.7-34.7s15.5-34.7,34.7-34.7S233,62.5,233,81.6
			S204.1,116.3,184.9,116.3z"/>
		<path fill="#F9B2A6" d="M262.2,67.6c-0.2-13.8-10.6-33.6-18-40.9c-7.4-7.4-19.9-20.2-43.6-23.9c-23.7-3.8-45.8,4.5-62.3,19.5
			c-16.4,15-23.1,37.2-23.3,56.3s9.8,45,37.3,64.4c20.9,14.7,35.6,19.2,48.9,20.1c13.3,0.9,21-5.4,27.3-10.4s11.9-16.9,15.9-24.7
			c4-7.7,11.4-21.7,14.6-30.2C262.2,89.3,262.4,81.3,262.2,67.6z M195.7,143.5c0,0-22.2-8.9-37-37.8s1-47.2,13.1-53.8
			s27.2,0.9,30.6,8.5c3.5,7.6,2.9,21.9,4.8,28c2,6.1,7.9,21,10,30.7C219.4,128.9,217.7,151.1,195.7,143.5z"/>
	</g>
	<path id="id:B_x3B_" fill="#81CECB" d="M44.1,109.6C34.9,94.8,3.6,85.7-1.1,84.4c3.9-6.5,25.2-40.1,45.2-29.2
		c27,14.7,45.8-15,45.8-15s-35.8,2.3-45.8-13.7C34.2,10.5-1.6,1.1-1.6,1.1l-0.1,83.1l0,0v83.1c0,0,23.7-41.1,45.8-29.1
		c27,14.7,45.8-15,45.8-15S54.1,125.6,44.1,109.6z"/>
</g>
</svg>
