<?xml version="1.0" encoding="utf-8"?>
<!-- Generator: Adobe Illustrator 18.0.0, SVG Export Plug-In . SVG Version: 6.00 Build 0)  -->
<!DOCTYPE svg PUBLIC "-//W3C//DTD SVG 1.1//EN" "http://www.w3.org/Graphics/SVG/1.1/DTD/svg11.dtd">
<svg version="1.1" id="logo" xmlns="http://www.w3.org/2000/svg" xmlns:xlink="http://www.w3.org/1999/xlink" x="0px" y="0px"
	 viewBox="2 1.5 1900 900" enable-background="new 2 1.5 1900 900" xml:space="preserve">
<g id="letters">
	<g id="id:A_x3B_">
		<path fill="#FF3000" d="M1684,625.2l-416,1.1c0,0,132-21.7,79.3-35.2c-34.7-8.8,100.7-127.8,58.8-127.8s109.6-130.1,59.9-130.1
			s31.9-99.5,31.9-99.5s-43,57.6,0.1,79.2c34.9,17.5,74.3,92.8,54,135.3c-40,83.8,141,121.9,94,123.2
			C1578,573.5,1684,625.2,1684,625.2z"/>
	</g>
	<g id="id:SS_x3B_">
		<g id="s2">
			<g>
				<circle cx="1075.2" cy="614.1" r="9.6"/>
			</g>
			<g>
				<circle cx="1160.7" cy="438.7" r="9.6"/>
			</g>
			<g>
				<circle cx="1079.4" cy="438.7" r="9.6"/>
			</g>
			<g>
				<circle cx="1162.8" cy="284.7" r="9.6"/>
			</g>
			<g>
				<polygon points="1077.3,612.2 1073.4,610.3 1157.3,441.2 1076.2,441.2 1163.1,282.1 1166.9,284.1 1083.4,436.9 1164.2,436.9 
									"/>
			</g>
		</g>
		<g id="s1">
			<g>
				<circle cx="1055.9" cy="573.5" r="9.6"/>
			</g>
			<g>
				<circle cx="1060.2" cy="398.1" r="9.6"/>
			</g>
			<g>
				<circle cx="1141.5" cy="398.1" r="9.6"/>
			</g>
			<g>
				<circle cx="1143.6" cy="244.1" r="9.6"/>
			</g>
			<g>
				<polygon points="1060.1,571.6 1056.3,569.7 1140.2,400.6 1059.1,400.6 1146,241.5 1149.8,243.5 1066.3,396.3 1147,396.3 				"/>
			</g>
		</g>
	</g>
	<path id="id:O" fill="#FFC000" d="M720.1,235.2c-107.7,0-156.1,83.4-156.1,191.1s48.4,198.9,156.1,198.9s195-50.2,195-195
		C915.1,284.7,827.8,235.2,720.1,235.2z M720.8,511.1c-45.9,0-83.1-37.2-83.1-83.1c0-45.9,37.2-83.1,83.1-83.1
		C766.7,345,836,382.2,836,428C836,473.9,766.7,511.1,720.8,511.1z"/>
	<g id="id:B_x3B_transparency:0_x3B_">
		<g>
			<path fill="#80CFCB" d="M220,432.7V233.8c0,0,85.6,22.3,109.4,60.6s109.4,32.8,109.4,32.8S394,398.1,329.4,363
				C276.6,334.3,220,432.7,220,432.7z"/>
		</g>
		<g id="id:B_x3B_transparency:0_x3B__1_">
			<g>
				<path fill="#80CFCB" d="M220,631.6V432.7c0,0,85.6,22.3,109.4,60.6s109.4,32.8,109.4,32.8S394,597,329.4,561.9
					C276.6,533.2,220,631.6,220,631.6z"/>
			</g>
		</g>
	</g>
</g>
</svg>
