<?xml version="1.0" encoding="utf-8"?>
<!-- Generator: Adobe Illustrator 16.2.1, SVG Export Plug-In . SVG Version: 6.00 Build 0)  -->
<!DOCTYPE svg PUBLIC "-//W3C//DTD SVG 1.1//EN" "http://www.w3.org/Graphics/SVG/1.1/DTD/svg11.dtd">
<svg version="1.1" id="logo" xmlns="http://www.w3.org/2000/svg" xmlns:xlink="http://www.w3.org/1999/xlink" x="0px" y="0px"
	 width="687px" height="185px" viewBox="0 0 687 185" enable-background="new 0 0 687 185" xml:space="preserve">
<g id="letters">
	<g id="id:A_x3B_">
		<polygon fill="#FF3000" points="686.5,185 515,185.5 599.5,2 		"/>
	</g>
	<g id="id:SS_x3B_">
		<g id="s2">
			<g>
				<circle cx="401.833" cy="179.834" r="4.5"/>
			</g>
			<g>
				<circle cx="441.833" cy="97.834" r="4.5"/>
			</g>
			<g>
				<circle cx="403.833" cy="97.834" r="4.5"/>
			</g>
			<g>
				<circle cx="442.833" cy="25.834" r="4.5"/>
			</g>
			<g>
				<polygon points="402.812,178.943 401.021,178.057 440.222,99 402.314,99 442.956,24.604 444.712,25.562 405.686,97 443.446,97 
									"/>
			</g>
		</g>
		<g id="s1">
			<g>
				<circle cx="392.833" cy="160.834" r="4.5"/>
			</g>
			<g>
				<circle cx="394.833" cy="78.834" r="4.5"/>
			</g>
			<g>
				<circle cx="432.833" cy="78.834" r="4.5"/>
			</g>
			<g>
				<circle cx="433.833" cy="6.834" r="4.5"/>
			</g>
			<g>
				<polygon points="394.812,159.943 393.021,159.057 432.222,80 394.314,80 434.956,5.604 436.712,6.562 397.686,78 435.446,78 
									"/>
			</g>
		</g>
	</g>
	<g id="id:O_x3B_">
		<path fill="#FFC000" d="M235.833,2.667c-50.35,0-91.167,40.817-91.167,91.167c0,50.35,40.817,91.166,91.167,91.166
			S327,144.184,327,93.834C327,43.484,286.183,2.667,235.833,2.667z M236.167,131.666c-21.448,0-38.833-17.386-38.833-38.833
			S214.72,54,236.167,54C257.614,54,275,71.386,275,92.833S257.614,131.666,236.167,131.666z"/>
	</g>
	<g id="id:B_x3B_transparency:0_x3B_">
		<g>
			<polygon fill="#80CFCB" points="2,95 2,2 104.334,45.668 			"/>
		</g>
		<g>
			<polyline fill="#80CFCB" points="104.334,135.668 2,185 2,92 			"/>
		</g>
	</g>
</g>
</svg>
