<?xml version="1.0" encoding="utf-8"?>
<!-- Generator: Adobe Illustrator 18.0.0, SVG Export Plug-In . SVG Version: 6.00 Build 0)  -->
<!DOCTYPE svg PUBLIC "-//W3C//DTD SVG 1.1//EN" "http://www.w3.org/Graphics/SVG/1.1/DTD/svg11.dtd">
<svg version="1.1" id="logo" xmlns="http://www.w3.org/2000/svg" xmlns:xlink="http://www.w3.org/1999/xlink" x="0px" y="0px"
	 viewBox="-592 18 2622 756" enable-background="new -592 18 2622 756" xml:space="preserve">
<g id="letters">
	<g id="id:A_x3B_">
		<path fill="#FF3000" d="M1558,605l-448.6,1.1c0,0,142.3-23.5,85.4-37.9c-37.4-9.5,108.5-137.8,63.4-137.8s118.2-140.2,64.5-140.2
			c-53.6,0,34.5-107.3,34.5-107.3s-46.4,62.1,0.1,85.4c37.6,18.9,80.1,100,58.2,145.9c-43.1,90.3,152,132.9,101.4,132.9
			C1466.3,547.3,1558,605,1558,605z"/>
	</g>
	<g id="id:SS_x3B_">
		<g id="s2">
			<g>
				<circle cx="901.5" cy="593.2" r="10.4"/>
			</g>
			<g>
				<circle cx="993.8" cy="404.1" r="10.4"/>
			</g>
			<g>
				<circle cx="906.1" cy="404.1" r="10.4"/>
			</g>
			<g>
				<circle cx="996.1" cy="238.1" r="10.4"/>
			</g>
			<g>
				<polygon points="903.8,591.1 899.7,589 990,406.7 902.7,406.7 996.4,235.2 1000.4,237.4 910.4,402.1 997.5,402.1 				"/>
			</g>
		</g>
		<g id="s1">
			<g>
				<circle cx="880.8" cy="549.4" r="10.4"/>
			</g>
			<g>
				<circle cx="885.4" cy="360.2" r="10.4"/>
			</g>
			<g>
				<circle cx="973" cy="360.2" r="10.4"/>
			</g>
			<g>
				<circle cx="975.4" cy="194.2" r="10.4"/>
			</g>
			<g>
				<polygon points="885.3,547.3 881.2,545.3 971.6,363 884.2,363 977.9,191.4 982,193.6 892,358.4 979,358.4 				"/>
			</g>
		</g>
	</g>
	<path id="id:O" fill="#FFC000" d="M518.8,184.6c-116.1,0-168.3,89.9-168.3,206S402.6,605,518.8,605S729,551,729,394.9
		C729,238.1,634.9,184.6,518.8,184.6z M519.6,482.1c-49.5,0-89.5-40.1-89.5-89.5s40.1-89.5,89.5-89.5c49.5,0,124.2,40.1,124.2,89.5
		S569,482.1,519.6,482.1z"/>
	<g id="id:B_x3B_transparency:0_x3B_">
		<g>
			<path fill="#80CFCB" d="M-20.4,397.5V183.1c0,0,92.3,24.1,118,65.4s118,35.4,118,35.4s-48.3,76.5-118,38.6
				C40.5,291.5-20.4,397.5-20.4,397.5z"/>
		</g>
		<g id="id:B_x3B_transparency:0_x3B__1_">
			<g>
				<path fill="#80CFCB" d="M-20.4,612V397.5c0,0,92.3,24.1,118,65.4s118,35.4,118,35.4s-48.3,76.5-118,38.6
					C40.5,505.9-20.4,612-20.4,612z"/>
			</g>
		</g>
	</g>
</g>
</svg>
